# xmcd
#
# Track frame offsets:
#	150
#	20085
#	34337
#	57450
#	78825
#	104207
#	123782
#	150335
#	160537
#	181485
#	205964
#	217851
#
# Disc length: 3166 seconds
#
# Revision: 1
# Processed by: cddbd v1.5.2PL0 Copyright (c) Steve Scherf et al.
# Submitted via: audiograbber 1.83.01
#
DISCID=9b0c5c0c
DTITLE=Eric Clapton and Jeff Beck - Live At Saitama, Japan 2-22-2009 [CD1]
DYEAR=2009
DGENRE=
TTITLE0=The Pump
TTITLE1=You Never Know
TTITLE2=Cause We've Ended As Lovers
TTITLE3=Stratus
TTITLE4=Angel
TTITLE5=Led Boots
TTITLE6=Goodbye Pork Pie Hat - Brush With The Blues
TTITLE7=Solo Instrumental
TTITLE8=A Day In The Life
TTITLE9=Big Block
TTITLE10=Where Were You
TTITLE11=Peter Gunn Theme
EXTD=
EXTT0=
EXTT1=
EXTT2=
EXTT3=
EXTT4=
EXTT5=
EXTT6=
EXTT7=
EXTT8=
EXTT9=
EXTT10=
EXTT11=
PLAYORDER=
